P3 50 50 225 0 0 0 0 0 2 0 0 4 0 0 6 0 1 9 0 2 11 0 3 13 0 4 15 0 5 18 0 7 20 0 9 22 0 10 24 0 12 27 0 15 29 0 17 31 0 20 33 0 23 36 0 26 38 0 29 40 0 32 42 0 36 45 0 39 47 0 43 49 0 47 51 0 51 54 0 56 56 0 60 58 0 65 60 0 70 63 0 75 65 0 81 67 0 86 69 0 92 72 0 98 74 0 104 76 0 110 78 0 116 81 0 123 83 0 129 85 0 136 87 0 144 90 0 151 92 0 158 94 0 166 96 0 174 99 0 182 101 0 190 103 0 198 105 0 207 108 0 216 110 0 0 2 0 0 4 0 0 6 0 0 9 0 1 11 0 2 13 0 3 15 0 4 18 0 5 20 0 7 22 0 9 24 0 10 27 0 12 29 0 15 31 0 17 33 0 20 36 0 23 38 0 26 40 0 29 42 0 32 45 0 36 47 0 39 49 0 43 51 0 47 54 0 51 56 0 56 58 0 60 60 0 65 63 0 70 65 0 75 67 0 81 69 0 86 72 0 92 74 0 98 76 0 104 78 0 110 81 0 116 83 0 123 85 0 129 87 0 136 90 0 144 92 0 151 94 0 158 96 0 166 99 0 174 101 0 182 103 0 190 105 0 198 108 0 207 110 0 216 112 0 0 4 0 0 6 0 0 9 0 0 11 0 1 13 0 2 15 0 3 18 0 4 20 0 5 22 0 7 24 0 9 27 0 10 29 0 12 31 0 15 33 0 17 36 0 20 38 0 23 40 0 26 42 0 29 45 0 32 47 0 36 49 0 39 51 0 43 54 0 47 56 0 51 58 0 56 60 0 60 63 0 65 65 0 70 67 0 75 69 0 81 72 0 86 74 0 92 76 0 98 78 0 104 81 0 110 83 0 116 85 0 123 87 0 129 90 0 136 92 0 144 94 0 151 96 0 158 99 0 166 101 0 174 103 0 182 105 0 190 108 0 198 110 0 207 112 0 216 114 0 0 6 0 0 9 0 0 11 0 0 13 0 1 15 0 2 18 0 3 20 0 4 22 0 5 24 0 7 27 0 9 29 0 10 31 0 12 33 0 15 36 0 17 38 0 20 40 0 23 42 0 26 45 0 29 47 0 32 49 0 36 51 0 39 54 0 43 56 0 47 58 0 51 60 0 56 63 0 60 65 0 65 67 0 70 69 0 75 72 0 81 74 0 86 76 0 92 78 0 98 81 0 104 83 0 110 85 0 116 87 0 123 90 0 129 92 0 136 94 0 144 96 0 151 99 0 158 101 0 166 103 0 174 105 0 182 108 0 190 110 0 198 112 0 207 114 0 216 117 1 0 9 1 0 11 1 0 13 1 0 15 1 1 18 1 2 20 1 3 22 1 4 24 1 5 27 1 7 29 1 9 31 1 10 33 1 12 36 1 15 38 1 17 40 1 20 42 1 23 45 1 26 47 1 29 49 1 32 51 1 36 54 1 39 56 1 43 58 1 47 60 1 51 63 1 56 65 1 60 67 1 65 69 1 70 72 1 75 74 1 81 76 1 86 78 1 92 81 1 98 83 1 104 85 1 110 87 1 116 90 1 123 92 1 129 94 1 136 96 1 144 99 1 151 101 1 158 103 1 166 105 1 174 108 1 182 110 1 190 112 1 198 114 1 207 117 1 216 119 2 0 11 2 0 13 2 0 15 2 0 18 2 1 20 2 2 22 2 3 24 2 4 27 2 5 29 2 7 31 2 9 33 2 10 36 2 12 38 2 15 40 2 17 42 2 20 45 2 23 47 2 26 49 2 29 51 2 32 54 2 36 56 2 39 58 2 43 60 2 47 63 2 51 65 2 56 67 2 60 69 2 65 72 2 70 74 2 75 76 2 81 78 2 86 81 2 92 83 2 98 85 2 104 87 2 110 90 2 116 92 2 123 94 2 129 96 2 136 99 2 144 101 2 151 103 2 158 105 2 166 108 2 174 110 2 182 112 2 190 114 2 198 117 2 207 119 2 216 121 3 0 13 3 0 15 3 0 18 3 0 20 3 1 22 3 2 24 3 3 27 3 4 29 3 5 31 3 7 33 3 9 36 3 10 38 3 12 40 3 15 42 3 17 45 3 20 47 3 23 49 3 26 51 3 29 54 3 32 56 3 36 58 3 39 60 3 43 63 3 47 65 3 51 67 3 56 69 3 60 72 3 65 74 3 70 76 3 75 78 3 81 81 3 86 83 3 92 85 3 98 87 3 104 90 3 110 92 3 116 94 3 123 96 3 129 99 3 136 101 3 144 103 3 151 105 3 158 108 3 166 110 3 174 112 3 182 114 3 190 117 3 198 119 3 207 121 3 216 123 4 0 15 4 0 18 4 0 20 4 0 22 4 1 24 4 2 27 4 3 29 4 4 31 4 5 33 4 7 36 4 9 38 4 10 40 4 12 42 4 15 45 4 17 47 4 20 49 4 23 51 4 26 54 4 29 56 4 32 58 4 36 60 4 39 63 4 43 65 4 47 67 4 51 69 4 56 72 4 60 74 4 65 76 4 70 78 4 75 81 4 81 83 4 86 85 4 92 87 4 98 90 4 104 92 4 110 94 4 116 96 4 123 99 4 129 101 4 136 103 4 144 105 4 151 108 4 158 110 4 166 112 4 174 114 4 182 117 4 190 119 4 198 121 4 207 123 4 216 126 5 0 18 5 0 20 5 0 22 5 0 24 5 1 27 5 2 29 5 3 31 5 4 33 5 5 36 5 7 38 5 9 40 5 10 42 5 12 45 5 15 47 5 17 49 5 20 51 5 23 54 5 26 56 5 29 58 5 32 60 5 36 63 5 39 65 5 43 67 5 47 69 5 51 72 5 56 74 5 60 76 5 65 78 5 70 81 5 75 83 5 81 85 5 86 87 5 92 90 5 98 92 5 104 94 5 110 96 5 116 99 5 123 101 5 129 103 5 136 105 5 144 108 5 151 110 5 158 112 5 166 114 5 174 117 5 182 119 5 190 121 5 198 123 5 207 126 5 216 128 7 0 20 7 0 22 7 0 24 7 0 27 7 1 29 7 2 31 7 3 33 7 4 36 7 5 38 7 7 40 7 9 42 7 10 45 7 12 47 7 15 49 7 17 51 7 20 54 7 23 56 7 26 58 7 29 60 7 32 63 7 36 65 7 39 67 7 43 69 7 47 72 7 51 74 7 56 76 7 60 78 7 65 81 7 70 83 7 75 85 7 81 87 7 86 90 7 92 92 7 98 94 7 104 96 7 110 99 7 116 101 7 123 103 7 129 105 7 136 108 7 144 110 7 151 112 7 158 114 7 166 117 7 174 119 7 182 121 7 190 123 7 198 126 7 207 128 7 216 130 9 0 22 9 0 24 9 0 27 9 0 29 9 1 31 9 2 33 9 3 36 9 4 38 9 5 40 9 7 42 9 9 45 9 10 47 9 12 49 9 15 51 9 17 54 9 20 56 9 23 58 9 26 60 9 29 63 9 32 65 9 36 67 9 39 69 9 43 72 9 47 74 9 51 76 9 56 78 9 60 81 9 65 83 9 70 85 9 75 87 9 81 90 9 86 92 9 92 94 9 98 96 9 104 99 9 110 101 9 116 103 9 123 105 9 129 108 9 136 110 9 144 112 9 151 114 9 158 117 9 166 119 9 174 121 9 182 123 9 190 126 9 198 128 9 207 130 9 216 132 10 0 24 10 0 27 10 0 29 10 0 31 10 1 33 10 2 36 10 3 38 10 4 40 10 5 42 10 7 45 10 9 47 10 10 49 10 12 51 10 15 54 10 17 56 10 20 58 10 23 60 10 26 63 10 29 65 10 32 67 10 36 69 10 39 72 10 43 74 10 47 76 10 51 78 10 56 81 10 60 83 10 65 85 10 70 87 10 75 90 10 81 92 10 86 94 10 92 96 10 98 99 10 104 101 10 110 103 10 116 105 10 123 108 10 129 110 10 136 112 10 144 114 10 151 117 10 158 119 10 166 121 10 174 123 10 182 126 10 190 128 10 198 130 10 207 132 10 216 135 12 0 27 12 0 29 12 0 31 12 0 33 12 1 36 12 2 38 12 3 40 12 4 42 12 5 45 12 7 47 12 9 49 12 10 51 12 12 54 12 15 56 12 17 58 12 20 60 12 23 63 12 26 65 12 29 67 12 32 69 12 36 72 12 39 74 12 43 76 12 47 78 12 51 81 12 56 83 12 60 85 12 65 87 12 70 90 12 75 92 12 81 94 12 86 96 12 92 99 12 98 101 12 104 103 12 110 105 12 116 108 12 123 110 12 129 112 12 136 114 12 144 117 12 151 119 12 158 121 12 166 123 12 174 126 12 182 128 12 190 130 12 198 132 12 207 135 12 216 137 15 0 29 15 0 31 15 0 33 15 0 36 15 1 38 15 2 40 15 3 42 15 4 45 15 5 47 15 7 49 15 9 51 15 10 54 15 12 56 15 15 58 15 17 60 15 20 63 15 23 65 15 26 67 15 29 69 15 32 72 15 36 74 15 39 76 15 43 78 15 47 81 15 51 83 15 56 85 15 60 87 15 65 90 15 70 92 15 75 94 15 81 96 15 86 99 15 92 101 15 98 103 15 104 105 15 110 108 15 116 110 15 123 112 15 129 114 15 136 117 15 144 119 15 151 121 15 158 123 15 166 126 15 174 128 15 182 130 15 190 132 15 198 135 15 207 137 15 216 139 17 0 31 17 0 33 17 0 36 17 0 38 17 1 40 17 2 42 17 3 45 17 4 47 17 5 49 17 7 51 17 9 54 17 10 56 17 12 58 17 15 60 17 17 63 17 20 65 17 23 67 17 26 69 17 29 72 17 32 74 17 36 76 17 39 78 17 43 81 17 47 83 17 51 85 17 56 87 17 60 90 17 65 92 17 70 94 17 75 96 17 81 99 17 86 101 17 92 103 17 98 105 17 104 108 17 110 110 17 116 112 17 123 114 17 129 117 17 136 119 17 144 121 17 151 123 17 158 126 17 166 128 17 174 130 17 182 132 17 190 135 17 198 137 17 207 139 17 216 141 20 0 33 20 0 36 20 0 38 20 0 40 20 1 42 20 2 45 20 3 47 20 4 49 20 5 51 20 7 54 20 9 56 20 10 58 20 12 60 20 15 63 20 17 65 20 20 67 20 23 69 20 26 72 20 29 74 20 32 76 20 36 78 20 39 81 20 43 83 20 47 85 20 51 87 20 56 90 20 60 92 20 65 94 20 70 96 20 75 99 20 81 101 20 86 103 20 92 105 20 98 108 20 104 110 20 110 112 20 116 114 20 123 117 20 129 119 20 136 121 20 144 123 20 151 126 20 158 128 20 166 130 20 174 132 20 182 135 20 190 137 20 198 139 20 207 141 20 216 144 23 0 36 23 0 38 23 0 40 23 0 42 23 1 45 23 2 47 23 3 49 23 4 51 23 5 54 23 7 56 23 9 58 23 10 60 23 12 63 23 15 65 23 17 67 23 20 69 23 23 72 23 26 74 23 29 76 23 32 78 23 36 81 23 39 83 23 43 85 23 47 87 23 51 90 23 56 92 23 60 94 23 65 96 23 70 99 23 75 101 23 81 103 23 86 105 23 92 108 23 98 110 23 104 112 23 110 114 23 116 117 23 123 119 23 129 121 23 136 123 23 144 126 23 151 128 23 158 130 23 166 132 23 174 135 23 182 137 23 190 139 23 198 141 23 207 144 23 216 146 26 0 38 26 0 40 26 0 42 26 0 45 26 1 47 26 2 49 26 3 51 26 4 54 26 5 56 26 7 58 26 9 60 26 10 63 26 12 65 26 15 67 26 17 69 26 20 72 26 23 74 26 26 76 26 29 78 26 32 81 26 36 83 26 39 85 26 43 87 26 47 90 26 51 92 26 56 94 26 60 96 26 65 99 26 70 101 26 75 103 26 81 105 26 86 108 26 92 110 26 98 112 26 104 114 26 110 117 26 116 119 26 123 121 26 129 123 26 136 126 26 144 128 26 151 130 26 158 132 26 166 135 26 174 137 26 182 139 26 190 141 26 198 144 26 207 146 26 216 148 29 0 40 29 0 42 29 0 45 29 0 47 29 1 49 29 2 51 29 3 54 29 4 56 29 5 58 29 7 60 29 9 63 29 10 65 29 12 67 29 15 69 29 17 72 29 20 74 29 23 76 29 26 78 29 29 81 29 32 83 29 36 85 29 39 87 29 43 90 29 47 92 29 51 94 29 56 96 29 60 99 29 65 101 29 70 103 29 75 105 29 81 108 29 86 110 29 92 112 29 98 114 29 104 117 29 110 119 29 116 121 29 123 123 29 129 126 29 136 128 29 144 130 29 151 132 29 158 135 29 166 137 29 174 139 29 182 141 29 190 144 29 198 146 29 207 148 29 216 150 32 0 42 32 0 45 32 0 47 32 0 49 32 1 51 32 2 54 32 3 56 32 4 58 32 5 60 32 7 63 32 9 65 32 10 67 32 12 69 32 15 72 32 17 74 32 20 76 32 23 78 32 26 81 32 29 83 32 32 85 32 36 87 32 39 90 32 43 92 32 47 94 32 51 96 32 56 99 32 60 101 32 65 103 32 70 105 32 75 108 32 81 110 32 86 112 32 92 114 32 98 117 32 104 119 32 110 121 32 116 123 32 123 126 32 129 128 32 136 130 32 144 132 32 151 135 32 158 137 32 166 139 32 174 141 32 182 144 32 190 146 32 198 148 32 207 150 32 216 153 36 0 45 36 0 47 36 0 49 36 0 51 36 1 54 36 2 56 36 3 58 36 4 60 36 5 63 36 7 65 36 9 67 36 10 69 36 12 72 36 15 74 36 17 76 36 20 78 36 23 81 36 26 83 36 29 85 36 32 87 36 36 90 36 39 92 36 43 94 36 47 96 36 51 99 36 56 101 36 60 103 36 65 105 36 70 108 36 75 110 36 81 112 36 86 114 36 92 117 36 98 119 36 104 121 36 110 123 36 116 126 36 123 128 36 129 130 36 136 132 36 144 135 36 151 137 36 158 139 36 166 141 36 174 144 36 182 146 36 190 148 36 198 150 36 207 153 36 216 155 39 0 47 39 0 49 39 0 51 39 0 54 39 1 56 39 2 58 39 3 60 39 4 63 39 5 65 39 7 67 39 9 69 39 10 72 39 12 74 39 15 76 39 17 78 39 20 81 39 23 83 39 26 85 39 29 87 39 32 90 39 36 92 39 39 94 39 43 96 39 47 99 39 51 101 39 56 103 39 60 105 39 65 108 39 70 110 39 75 112 39 81 114 39 86 117 39 92 119 39 98 121 39 104 123 39 110 126 39 116 128 39 123 130 39 129 132 39 136 135 39 144 137 39 151 139 39 158 141 39 166 144 39 174 146 39 182 148 39 190 150 39 198 153 39 207 155 39 216 157 43 0 49 43 0 51 43 0 54 43 0 56 43 1 58 43 2 60 43 3 63 43 4 65 43 5 67 43 7 69 43 9 72 43 10 74 43 12 76 43 15 78 43 17 81 43 20 83 43 23 85 43 26 87 43 29 90 43 32 92 43 36 94 43 39 96 43 43 99 43 47 101 43 51 103 43 56 105 43 60 108 43 65 110 43 70 112 43 75 114 43 81 117 43 86 119 43 92 121 43 98 123 43 104 126 43 110 128 43 116 130 43 123 132 43 129 135 43 136 137 43 144 139 43 151 141 43 158 144 43 166 146 43 174 148 43 182 150 43 190 153 43 198 155 43 207 157 43 216 159 47 0 51 47 0 54 47 0 56 47 0 58 47 1 60 47 2 63 47 3 65 47 4 67 47 5 69 47 7 72 47 9 74 47 10 76 47 12 78 47 15 81 47 17 83 47 20 85 47 23 87 47 26 90 47 29 92 47 32 94 47 36 96 47 39 99 47 43 101 47 47 103 47 51 105 47 56 108 47 60 110 47 65 112 47 70 114 47 75 117 47 81 119 47 86 121 47 92 123 47 98 126 47 104 128 47 110 130 47 116 132 47 123 135 47 129 137 47 136 139 47 144 141 47 151 144 47 158 146 47 166 148 47 174 150 47 182 153 47 190 155 47 198 157 47 207 159 47 216 162 51 0 54 51 0 56 51 0 58 51 0 60 51 1 63 51 2 65 51 3 67 51 4 69 51 5 72 51 7 74 51 9 76 51 10 78 51 12 81 51 15 83 51 17 85 51 20 87 51 23 90 51 26 92 51 29 94 51 32 96 51 36 99 51 39 101 51 43 103 51 47 105 51 51 108 51 56 110 51 60 112 51 65 114 51 70 117 51 75 119 51 81 121 51 86 123 51 92 126 51 98 128 51 104 130 51 110 132 51 116 135 51 123 137 51 129 139 51 136 141 51 144 144 51 151 146 51 158 148 51 166 150 51 174 153 51 182 155 51 190 157 51 198 159 51 207 162 51 216 164 56 0 56 56 0 58 56 0 60 56 0 63 56 1 65 56 2 67 56 3 69 56 4 72 56 5 74 56 7 76 56 9 78 56 10 81 56 12 83 56 15 85 56 17 87 56 20 90 56 23 92 56 26 94 56 29 96 56 32 99 56 36 101 56 39 103 56 43 105 56 47 108 56 51 110 56 56 112 56 60 114 56 65 117 56 70 119 56 75 121 56 81 123 56 86 126 56 92 128 56 98 130 56 104 132 56 110 135 56 116 137 56 123 139 56 129 141 56 136 144 56 144 146 56 151 148 56 158 150 56 166 153 56 174 155 56 182 157 56 190 159 56 198 162 56 207 164 56 216 166 60 0 58 60 0 60 60 0 63 60 0 65 60 1 67 60 2 69 60 3 72 60 4 74 60 5 76 60 7 78 60 9 81 60 10 83 60 12 85 60 15 87 60 17 90 60 20 92 60 23 94 60 26 96 60 29 99 60 32 101 60 36 103 60 39 105 60 43 108 60 47 110 60 51 112 60 56 114 60 60 117 60 65 119 60 70 121 60 75 123 60 81 126 60 86 128 60 92 130 60 98 132 60 104 135 60 110 137 60 116 139 60 123 141 60 129 144 60 136 146 60 144 148 60 151 150 60 158 153 60 166 155 60 174 157 60 182 159 60 190 162 60 198 164 60 207 166 60 216 168 65 0 60 65 0 63 65 0 65 65 0 67 65 1 69 65 2 72 65 3 74 65 4 76 65 5 78 65 7 81 65 9 83 65 10 85 65 12 87 65 15 90 65 17 92 65 20 94 65 23 96 65 26 99 65 29 101 65 32 103 65 36 105 65 39 108 65 43 110 65 47 112 65 51 114 65 56 117 65 60 119 65 65 121 65 70 123 65 75 126 65 81 128 65 86 130 65 92 132 65 98 135 65 104 137 65 110 139 65 116 141 65 123 144 65 129 146 65 136 148 65 144 150 65 151 153 65 158 155 65 166 157 65 174 159 65 182 162 65 190 164 65 198 166 65 207 168 65 216 171 70 0 63 70 0 65 70 0 67 70 0 69 70 1 72 70 2 74 70 3 76 70 4 78 70 5 81 70 7 83 70 9 85 70 10 87 70 12 90 70 15 92 70 17 94 70 20 96 70 23 99 70 26 101 70 29 103 70 32 105 70 36 108 70 39 110 70 43 112 70 47 114 70 51 117 70 56 119 70 60 121 70 65 123 70 70 126 70 75 128 70 81 130 70 86 132 70 92 135 70 98 137 70 104 139 70 110 141 70 116 144 70 123 146 70 129 148 70 136 150 70 144 153 70 151 155 70 158 157 70 166 159 70 174 162 70 182 164 70 190 166 70 198 168 70 207 171 70 216 173 75 0 65 75 0 67 75 0 69 75 0 72 75 1 74 75 2 76 75 3 78 75 4 81 75 5 83 75 7 85 75 9 87 75 10 90 75 12 92 75 15 94 75 17 96 75 20 99 75 23 101 75 26 103 75 29 105 75 32 108 75 36 110 75 39 112 75 43 114 75 47 117 75 51 119 75 56 121 75 60 123 75 65 126 75 70 128 75 75 130 75 81 132 75 86 135 75 92 137 75 98 139 75 104 141 75 110 144 75 116 146 75 123 148 75 129 150 75 136 153 75 144 155 75 151 157 75 158 159 75 166 162 75 174 164 75 182 166 75 190 168 75 198 171 75 207 173 75 216 175 81 0 67 81 0 69 81 0 72 81 0 74 81 1 76 81 2 78 81 3 81 81 4 83 81 5 85 81 7 87 81 9 90 81 10 92 81 12 94 81 15 96 81 17 99 81 20 101 81 23 103 81 26 105 81 29 108 81 32 110 81 36 112 81 39 114 81 43 117 81 47 119 81 51 121 81 56 123 81 60 126 81 65 128 81 70 130 81 75 132 81 81 135 81 86 137 81 92 139 81 98 141 81 104 144 81 110 146 81 116 148 81 123 150 81 129 153 81 136 155 81 144 157 81 151 159 81 158 162 81 166 164 81 174 166 81 182 168 81 190 171 81 198 173 81 207 175 81 216 177 86 0 69 86 0 72 86 0 74 86 0 76 86 1 78 86 2 81 86 3 83 86 4 85 86 5 87 86 7 90 86 9 92 86 10 94 86 12 96 86 15 99 86 17 101 86 20 103 86 23 105 86 26 108 86 29 110 86 32 112 86 36 114 86 39 117 86 43 119 86 47 121 86 51 123 86 56 126 86 60 128 86 65 130 86 70 132 86 75 135 86 81 137 86 86 139 86 92 141 86 98 144 86 104 146 86 110 148 86 116 150 86 123 153 86 129 155 86 136 157 86 144 159 86 151 162 86 158 164 86 166 166 86 174 168 86 182 171 86 190 173 86 198 175 86 207 177 86 216 180 92 0 72 92 0 74 92 0 76 92 0 78 92 1 81 92 2 83 92 3 85 92 4 87 92 5 90 92 7 92 92 9 94 92 10 96 92 12 99 92 15 101 92 17 103 92 20 105 92 23 108 92 26 110 92 29 112 92 32 114 92 36 117 92 39 119 92 43 121 92 47 123 92 51 126 92 56 128 92 60 130 92 65 132 92 70 135 92 75 137 92 81 139 92 86 141 92 92 144 92 98 146 92 104 148 92 110 150 92 116 153 92 123 155 92 129 157 92 136 159 92 144 162 92 151 164 92 158 166 92 166 168 92 174 171 92 182 173 92 190 175 92 198 177 92 207 180 92 216 182 98 0 74 98 0 76 98 0 78 98 0 81 98 1 83 98 2 85 98 3 87 98 4 90 98 5 92 98 7 94 98 9 96 98 10 99 98 12 101 98 15 103 98 17 105 98 20 108 98 23 110 98 26 112 98 29 114 98 32 117 98 36 119 98 39 121 98 43 123 98 47 126 98 51 128 98 56 130 98 60 132 98 65 135 98 70 137 98 75 139 98 81 141 98 86 144 98 92 146 98 98 148 98 104 150 98 110 153 98 116 155 98 123 157 98 129 159 98 136 162 98 144 164 98 151 166 98 158 168 98 166 171 98 174 173 98 182 175 98 190 177 98 198 180 98 207 182 98 216 184 104 0 76 104 0 78 104 0 81 104 0 83 104 1 85 104 2 87 104 3 90 104 4 92 104 5 94 104 7 96 104 9 99 104 10 101 104 12 103 104 15 105 104 17 108 104 20 110 104 23 112 104 26 114 104 29 117 104 32 119 104 36 121 104 39 123 104 43 126 104 47 128 104 51 130 104 56 132 104 60 135 104 65 137 104 70 139 104 75 141 104 81 144 104 86 146 104 92 148 104 98 150 104 104 153 104 110 155 104 116 157 104 123 159 104 129 162 104 136 164 104 144 166 104 151 168 104 158 171 104 166 173 104 174 175 104 182 177 104 190 180 104 198 182 104 207 184 104 216 186 110 0 78 110 0 81 110 0 83 110 0 85 110 1 87 110 2 90 110 3 92 110 4 94 110 5 96 110 7 99 110 9 101 110 10 103 110 12 105 110 15 108 110 17 110 110 20 112 110 23 114 110 26 117 110 29 119 110 32 121 110 36 123 110 39 126 110 43 128 110 47 130 110 51 132 110 56 135 110 60 137 110 65 139 110 70 141 110 75 144 110 81 146 110 86 148 110 92 150 110 98 153 110 104 155 110 110 157 110 116 159 110 123 162 110 129 164 110 136 166 110 144 168 110 151 171 110 158 173 110 166 175 110 174 177 110 182 180 110 190 182 110 198 184 110 207 186 110 216 189 116 0 81 116 0 83 116 0 85 116 0 87 116 1 90 116 2 92 116 3 94 116 4 96 116 5 99 116 7 101 116 9 103 116 10 105 116 12 108 116 15 110 116 17 112 116 20 114 116 23 117 116 26 119 116 29 121 116 32 123 116 36 126 116 39 128 116 43 130 116 47 132 116 51 135 116 56 137 116 60 139 116 65 141 116 70 144 116 75 146 116 81 148 116 86 150 116 92 153 116 98 155 116 104 157 116 110 159 116 116 162 116 123 164 116 129 166 116 136 168 116 144 171 116 151 173 116 158 175 116 166 177 116 174 180 116 182 182 116 190 184 116 198 186 116 207 189 116 216 191 123 0 83 123 0 85 123 0 87 123 0 90 123 1 92 123 2 94 123 3 96 123 4 99 123 5 101 123 7 103 123 9 105 123 10 108 123 12 110 123 15 112 123 17 114 123 20 117 123 23 119 123 26 121 123 29 123 123 32 126 123 36 128 123 39 130 123 43 132 123 47 135 123 51 137 123 56 139 123 60 141 123 65 144 123 70 146 123 75 148 123 81 150 123 86 153 123 92 155 123 98 157 123 104 159 123 110 162 123 116 164 123 123 166 123 129 168 123 136 171 123 144 173 123 151 175 123 158 177 123 166 180 123 174 182 123 182 184 123 190 186 123 198 189 123 207 191 123 216 193 129 0 85 129 0 87 129 0 90 129 0 92 129 1 94 129 2 96 129 3 99 129 4 101 129 5 103 129 7 105 129 9 108 129 10 110 129 12 112 129 15 114 129 17 117 129 20 119 129 23 121 129 26 123 129 29 126 129 32 128 129 36 130 129 39 132 129 43 135 129 47 137 129 51 139 129 56 141 129 60 144 129 65 146 129 70 148 129 75 150 129 81 153 129 86 155 129 92 157 129 98 159 129 104 162 129 110 164 129 116 166 129 123 168 129 129 171 129 136 173 129 144 175 129 151 177 129 158 180 129 166 182 129 174 184 129 182 186 129 190 189 129 198 191 129 207 193 129 216 195 136 0 87 136 0 90 136 0 92 136 0 94 136 1 96 136 2 99 136 3 101 136 4 103 136 5 105 136 7 108 136 9 110 136 10 112 136 12 114 136 15 117 136 17 119 136 20 121 136 23 123 136 26 126 136 29 128 136 32 130 136 36 132 136 39 135 136 43 137 136 47 139 136 51 141 136 56 144 136 60 146 136 65 148 136 70 150 136 75 153 136 81 155 136 86 157 136 92 159 136 98 162 136 104 164 136 110 166 136 116 168 136 123 171 136 129 173 136 136 175 136 144 177 136 151 180 136 158 182 136 166 184 136 174 186 136 182 189 136 190 191 136 198 193 136 207 195 136 216 198 144 0 90 144 0 92 144 0 94 144 0 96 144 1 99 144 2 101 144 3 103 144 4 105 144 5 108 144 7 110 144 9 112 144 10 114 144 12 117 144 15 119 144 17 121 144 20 123 144 23 126 144 26 128 144 29 130 144 32 132 144 36 135 144 39 137 144 43 139 144 47 141 144 51 144 144 56 146 144 60 148 144 65 150 144 70 153 144 75 155 144 81 157 144 86 159 144 92 162 144 98 164 144 104 166 144 110 168 144 116 171 144 123 173 144 129 175 144 136 177 144 144 180 144 151 182 144 158 184 144 166 186 144 174 189 144 182 191 144 190 193 144 198 195 144 207 198 144 216 200 151 0 92 151 0 94 151 0 96 151 0 99 151 1 101 151 2 103 151 3 105 151 4 108 151 5 110 151 7 112 151 9 114 151 10 117 151 12 119 151 15 121 151 17 123 151 20 126 151 23 128 151 26 130 151 29 132 151 32 135 151 36 137 151 39 139 151 43 141 151 47 144 151 51 146 151 56 148 151 60 150 151 65 153 151 70 155 151 75 157 151 81 159 151 86 162 151 92 164 151 98 166 151 104 168 151 110 171 151 116 173 151 123 175 151 129 177 151 136 180 151 144 182 151 151 184 151 158 186 151 166 189 151 174 191 151 182 193 151 190 195 151 198 198 151 207 200 151 216 202 158 0 94 158 0 96 158 0 99 158 0 101 158 1 103 158 2 105 158 3 108 158 4 110 158 5 112 158 7 114 158 9 117 158 10 119 158 12 121 158 15 123 158 17 126 158 20 128 158 23 130 158 26 132 158 29 135 158 32 137 158 36 139 158 39 141 158 43 144 158 47 146 158 51 148 158 56 150 158 60 153 158 65 155 158 70 157 158 75 159 158 81 162 158 86 164 158 92 166 158 98 168 158 104 171 158 110 173 158 116 175 158 123 177 158 129 180 158 136 182 158 144 184 158 151 186 158 158 189 158 166 191 158 174 193 158 182 195 158 190 198 158 198 200 158 207 202 158 216 204 166 0 96 166 0 99 166 0 101 166 0 103 166 1 105 166 2 108 166 3 110 166 4 112 166 5 114 166 7 117 166 9 119 166 10 121 166 12 123 166 15 126 166 17 128 166 20 130 166 23 132 166 26 135 166 29 137 166 32 139 166 36 141 166 39 144 166 43 146 166 47 148 166 51 150 166 56 153 166 60 155 166 65 157 166 70 159 166 75 162 166 81 164 166 86 166 166 92 168 166 98 171 166 104 173 166 110 175 166 116 177 166 123 180 166 129 182 166 136 184 166 144 186 166 151 189 166 158 191 166 166 193 166 174 195 166 182 198 166 190 200 166 198 202 166 207 204 166 216 207 174 0 99 174 0 101 174 0 103 174 0 105 174 1 108 174 2 110 174 3 112 174 4 114 174 5 117 174 7 119 174 9 121 174 10 123 174 12 126 174 15 128 174 17 130 174 20 132 174 23 135 174 26 137 174 29 139 174 32 141 174 36 144 174 39 146 174 43 148 174 47 150 174 51 153 174 56 155 174 60 157 174 65 159 174 70 162 174 75 164 174 81 166 174 86 168 174 92 171 174 98 173 174 104 175 174 110 177 174 116 180 174 123 182 174 129 184 174 136 186 174 144 189 174 151 191 174 158 193 174 166 195 174 174 198 174 182 200 174 190 202 174 198 204 174 207 207 174 216 209 182 0 101 182 0 103 182 0 105 182 0 108 182 1 110 182 2 112 182 3 114 182 4 117 182 5 119 182 7 121 182 9 123 182 10 126 182 12 128 182 15 130 182 17 132 182 20 135 182 23 137 182 26 139 182 29 141 182 32 144 182 36 146 182 39 148 182 43 150 182 47 153 182 51 155 182 56 157 182 60 159 182 65 162 182 70 164 182 75 166 182 81 168 182 86 171 182 92 173 182 98 175 182 104 177 182 110 180 182 116 182 182 123 184 182 129 186 182 136 189 182 144 191 182 151 193 182 158 195 182 166 198 182 174 200 182 182 202 182 190 204 182 198 207 182 207 209 182 216 211 190 0 103 190 0 105 190 0 108 190 0 110 190 1 112 190 2 114 190 3 117 190 4 119 190 5 121 190 7 123 190 9 126 190 10 128 190 12 130 190 15 132 190 17 135 190 20 137 190 23 139 190 26 141 190 29 144 190 32 146 190 36 148 190 39 150 190 43 153 190 47 155 190 51 157 190 56 159 190 60 162 190 65 164 190 70 166 190 75 168 190 81 171 190 86 173 190 92 175 190 98 177 190 104 180 190 110 182 190 116 184 190 123 186 190 129 189 190 136 191 190 144 193 190 151 195 190 158 198 190 166 200 190 174 202 190 182 204 190 190 207 190 198 209 190 207 211 190 216 213 198 0 105 198 0 108 198 0 110 198 0 112 198 1 114 198 2 117 198 3 119 198 4 121 198 5 123 198 7 126 198 9 128 198 10 130 198 12 132 198 15 135 198 17 137 198 20 139 198 23 141 198 26 144 198 29 146 198 32 148 198 36 150 198 39 153 198 43 155 198 47 157 198 51 159 198 56 162 198 60 164 198 65 166 198 70 168 198 75 171 198 81 173 198 86 175 198 92 177 198 98 180 198 104 182 198 110 184 198 116 186 198 123 189 198 129 191 198 136 193 198 144 195 198 151 198 198 158 200 198 166 202 198 174 204 198 182 207 198 190 209 198 198 211 198 207 213 198 216 216 207 0 108 207 0 110 207 0 112 207 0 114 207 1 117 207 2 119 207 3 121 207 4 123 207 5 126 207 7 128 207 9 130 207 10 132 207 12 135 207 15 137 207 17 139 207 20 141 207 23 144 207 26 146 207 29 148 207 32 150 207 36 153 207 39 155 207 43 157 207 47 159 207 51 162 207 56 164 207 60 166 207 65 168 207 70 171 207 75 173 207 81 175 207 86 177 207 92 180 207 98 182 207 104 184 207 110 186 207 116 189 207 123 191 207 129 193 207 136 195 207 144 198 207 151 200 207 158 202 207 166 204 207 174 207 207 182 209 207 190 211 207 198 213 207 207 216 207 216 218 216 0 110 216 0 112 216 0 114 216 0 117 216 1 119 216 2 121 216 3 123 216 4 126 216 5 128 216 7 130 216 9 132 216 10 135 216 12 137 216 15 139 216 17 141 216 20 144 216 23 146 216 26 148 216 29 150 216 32 153 216 36 155 216 39 157 216 43 159 216 47 162 216 51 164 216 56 166 216 60 168 216 65 171 216 70 173 216 75 175 216 81 177 216 86 180 216 92 182 216 98 184 216 104 186 216 110 189 216 116 191 216 123 193 216 129 195 216 136 198 216 144 200 216 151 202 216 158 204 216 166 207 216 174 209 216 182 211 216 190 213 216 198 216 216 207 218 216 216 220 