P1 100 100
0000000000000000000000000000000000000000000000000000000010000000110000000000000000000000000000000000000000000000000000000000000000000000000000000000000000001000000110000000000000000000000000000000000000000000000000000000000000000000000000000000000000000000100000011000000000000000000000000000000000000000000000000000000000000000000000000000000000000000000010000011000000000000000000000000000000000000000000000000000000000000000000000000000000000000000000001000001100000000000000000000000000000000000000000000000000000000000000000000000000000000000000000000110001100000000000000000000000000000000000000000000000000000000000000000000000000000000000000000000011000110000000000000000000000000000000000000000000000000000000000000000000000000000000000000000000000100110000000000000000000000000000000000000000000000000000000000000000000000000000000000000000000000010011000000000000000000000000000000000000000000000000000000000000000000000000000000000000000000000001011000000000000000000000000000000000000000000000000000000000000000000000000000000000000000000000000101100000000000000000000000000000000000000000000000000000000000000000000000000000000000000000000000011100000000000000000000000000000000000000000000000000000000000000000000000000000000000000000000000001110000000000000000000000000000000000000000000000000000000000000000000000000000000000000000000000000110000000000000000000000000000000000000000000000000000000000000000000000000000000000000000000000000011000000000000000000000000000000000000000000000000000000000000000000000000000000000000000000000000011100000000000000000000000000000000000000000000000000000000000000000000000000000000000000000000000001110000000000000000000000000000000000000000000000000000000000000000000000000000000000000000000000001101000000000000000000000000000000000000000000000000000000000000000000000000000000000000000000000000110100000000000000000000000000000000000000000000000000000000000000000000000000000000000000000000000110010000000000000000000000000000000000000000000000000000000000000000000000000000000000000000000000011001000000000000000000000000000000000000000000000000000000000000000000000000000000000000000000000011000110000000000000000000000000000000000000000000000000000000000000000000000000000000000000000000001100011000000000000000000000000000000000000000000000000000000000000000000000000000000000000000000001100000100000000000000000000000000000000000000000000000000000000000000000000000000000000000000000000110000010000000000000000000000000000000000000000000000000000000000000000000000000000000000000000000110000001000000000000000000000000000000000000000000000000000000000000000000000000000000000000000000011000000100000000000000000000000000000000000000000000000000000000000000000000000000000000000000000011000000010000000000000000000000000000000000000000000000000000000000000000000000000000000000000000001100000001000000000000000000000000000000000000000000000000000000000000000000000000000000000000000001100000000110000000000000000000000000000000000000000000000000000000000000000000000000000000000000000110000000011000000000000000000000000000000000000000000000000000000000000000000000000000000000000000110000000000100000000000000000000000000000000000000000000000000000000000000000000000000000000000000011000000000010000000000000000000000000000000000000000000000000000000000000000000000000000000000000011000000000001000000000000000000000000000000000000000000000000000000000000000000000000000000000000001100000000000100000000000000000000000000000000000000000000000000000000000000000000000000000000000001100000000000010000000000000000000000000000000000000000000000000000000000000000000000000000000000000110000000000001000000000000000000000000000000000000000000000000000000000000000000000000000000000000110000000000000110000000000000000000000000000000000000000000000000000000000000000000000000000000000011000000000000011000000000000000000000000000000000000001000000000000000000000000000000000000000000011000000000000000100000000000000000000000000000000000000110000000000000000000000000000000000000000001100000000000000010000000000000000000000000000000000000001110000000000000000000000000000000000000001100000000000000001000000000000000000000000000000000000000001110000000000000000000000000000000000000110000000000000000100000000000000000000000000000000000000000011100000000000000000000000000000000000110000000000000000010000000000000000000000000000000000000000000011100000000000000000000000000000000011000000000000000001000000000000000000000000000000000000000000000011100000000000000000000000000000011000000000000000000110000000000000000000000000000000000000000000000111000000000000000000000000000001100000000000000000011000000000000000000000000000000000000000000000000111000000000000000000000000001100000000000000000000100000000000000000000000000000000000000000000000000111000000000000000000000000110000000000000000000010000000000000000000000000000000000000000000000000001110000000000000000000000110000000000000000000001000000000000000000000000000000000000000000000000000001110000000000000000000011000000000000000000000100000000000000000000000000000000000000000000000000000001110000000000000000011000000000000000000000010000000000000000000000000000000000000000000000000000000011100000000000000001100000000000000000000001000000000000000000000000000000000000000000000000000000000011100000000000001100000000000000000000000110000000000000000000000000000000000000000000000000000000000011100000000000110000000000000000000000011000000000000000000000000000000000000000000000000000000000000111000000000110000000000000000000000000100000000000000000000000000000000000000000000000000000000000000111000000011000000000000000000000000010000000000000000000000000000000000000000000000000000000000000000111000011000000000000000000000000001000000000000000000000000000000000000000000000000000000000000000001110001100000000000000000000000000100000000000000000000000000000000000000000000000000000000000000000001111100000000000000000000000000010000000000000000000000000000000000000000000000000000000000000000000001110000000000000000000000000001000000000000000000000000000000000000000000000000000000000000000000000111100000000000000000000000000110000000000000000000000000000000000000000000000000000000000000000000011011100000000000000000000000011000000000000000000000000000000000000000000000000000000000000000000011000011100000000000000000000000100000000000000000000000000000000000000000000000000000000000000000001100000111000000000000000000000010000000000000000000000000000000000000000000000000000000000000000001100000000111000000000000000000001000000000000000000000000000000000000000000000000000000000000000000110000000000111000000000000000000100000000000000000000000000000000000000000000000000000000000000000110000000000001110000000000000000010000000000000000000000000000000000000000000000000000000000000000011000000000000001110000000000000001000000000000000000000000000000000000000000000000000000000000000011000000000000000001110000000000000110000000000000000000000000000000000000000000000000000000000000001100000000000000000011100000000000011000000000000000000000000000000000000000000000000000000000000001100000000000000000000011100000000000100000000000000000000000000000000000000000000000000000000000000110000000000000000000000011100000000010000000000000000000000000000000000000000000000000000000000000110000000000000000000000000111000000001000000000000000000000000000000000000000000000000000000000000011000000000000000000000000000111000000100000000000000000000000000000000000000000000000000000000000011000000000000000000000000000000111000010000000000000000000000000000000000000000000000000000000000001100000000000000000000000000000001110001000000000000000000000000000000000000000000000000000000000001100000000000000000000000000000000001110110000000000000000000000000000000000000000000000000000000000110000000000000000000000000000000000001111000000000000000000000000000000000000000000000000000000000110000000000000000000000000000000000000011100000000000000000000000000000000000000000000000000000000011000000000000000000000000000000000000000011100000000000000000000000000000000000000000000000000000011000000000000000000000000000000000000000001011100000000000000000000000000000000000000000000000000001100000000000000000000000000000000000000000100111000000000000000000000000000000000000000000000000001100000000000000000000000000000000000000000010000111000000000000000000000000000000000000000000000000110000000000000000000000000000000000000000001000000111000000000000000000000000000000000000000000000110000000000000000000000000000000000000000000110000001110000000000000000000000000000000000000000000011000000000000000000000000000000000000000000011000000001110000000000000000000000000000000000000000011000000000000000000000000000000000000000000000100000000001110000000000000000000000000000000000000001100000000000000000000000000000000000000000000010000000000011100000000000000000000000000000000000001100000000000000000000000000000000000000000000001000000000000011100000000000000000000000000000000000110000000000000000000000000000000000000000000000100000000000000011100000000000000000000000000000000110000000000000000000000000000000000000000000000010000000000000000111000000000000000000000000000000011000000000000000000000000000000000000000000000001000000000000000000111000000000000000000000000000011000000000000000000000000000000000000000000000000110000000000000000000111000000000000000000000000001100000000000000000000000000000000000000000000000011000000000000000000001110000000000000000000000001100000000000000000000000000000000000000000000000000100000000000000000000001110000000000000000000000110000000000000000000000000000000000000000000000000010000000000000000000000001110000000000000000000110000000000000000000000000000000000000000000000000001000000000000000000000000011100000000000000000011000000000000000000000000000000000000000000000000000100000000000000000000000000011100000000000000011000000000000000000000000000000000000000000000000000010000000000000000000000000000011
